<svg width="110" height="33" viewBox="0 0 110 33" fill="none" xmlns="http://www.w3.org/2000/svg">
<path d="M2 12.0564V26.3647C2 29.5177 5.478 31.4311 8.14122 29.7433L14.2285 25.8855L19.7802 29.5891C22.4383 31.3624 26 29.4569 26 26.2616V12.0258C26 10.7378 25.3798 9.52868 24.3338 8.77722L16.5608 3.19292C15.195 2.21166 13.3612 2.18957 11.9721 3.13763L13.0995 4.78956L11.9721 3.13763L3.74512 8.75255C2.65319 9.49779 2 10.7344 2 12.0564Z" fill="#FFFFFF" fill-opacity="0.1" stroke="#FFFFFF" stroke-width="4" stroke-linecap="round"/>
<ellipse cx="14.2564" cy="17" rx="3.07692" ry="3" fill="#FFFFFF"/>
<path d="M37.517 25V7.54545H44.5057C45.7898 7.54545 46.8608 7.7358 47.7188 8.11648C48.5767 8.49716 49.2216 9.02557 49.6534 9.7017C50.0852 10.3722 50.3011 11.1449 50.3011 12.0199C50.3011 12.7017 50.1648 13.3011 49.892 13.8182C49.6193 14.3295 49.2443 14.75 48.767 15.0795C48.2955 15.4034 47.7557 15.6335 47.1477 15.7699V15.9403C47.8125 15.9687 48.4347 16.1562 49.0142 16.5028C49.5994 16.8494 50.0739 17.3352 50.4375 17.9602C50.8011 18.5795 50.983 19.3182 50.983 20.1761C50.983 21.1023 50.7528 21.929 50.2926 22.6562C49.8381 23.3778 49.1648 23.9489 48.2727 24.3693C47.3807 24.7898 46.2813 25 44.9744 25H37.517ZM41.2074 21.983H44.2159C45.2443 21.983 45.9943 21.7869 46.4659 21.3949C46.9375 20.9972 47.1733 20.4687 47.1733 19.8097C47.1733 19.3267 47.0568 18.9006 46.8239 18.5312C46.5909 18.1619 46.2585 17.8722 45.8267 17.6619C45.4006 17.4517 44.892 17.3466 44.3011 17.3466H41.2074V21.983ZM41.2074 14.8494H43.9432C44.4489 14.8494 44.8977 14.7614 45.2898 14.5852C45.6875 14.4034 46 14.1477 46.2273 13.8182C46.4602 13.4886 46.5767 13.0938 46.5767 12.6335C46.5767 12.0028 46.3523 11.4943 45.9034 11.108C45.4602 10.7216 44.8295 10.5284 44.0114 10.5284H41.2074V14.8494ZM59.282 25.2557C57.9354 25.2557 56.7763 24.983 55.8047 24.4375C54.8388 23.8864 54.0945 23.108 53.5717 22.1023C53.049 21.0909 52.7876 19.8949 52.7876 18.5142C52.7876 17.1676 53.049 15.9858 53.5717 14.9688C54.0945 13.9517 54.8303 13.1591 55.7791 12.5909C56.7337 12.0227 57.853 11.7386 59.1371 11.7386C60.0007 11.7386 60.8047 11.8778 61.549 12.1562C62.299 12.429 62.9524 12.8409 63.5092 13.392C64.0717 13.9432 64.5092 14.6364 64.8217 15.4716C65.1342 16.3011 65.2905 17.2727 65.2905 18.3864V19.3835H54.2365V17.1335H61.8729C61.8729 16.6108 61.7592 16.1477 61.532 15.7443C61.3047 15.3409 60.9893 15.0256 60.5859 14.7983C60.1882 14.5653 59.7251 14.4489 59.1967 14.4489C58.6456 14.4489 58.157 14.5767 57.7308 14.8324C57.3104 15.0824 56.9808 15.4205 56.7422 15.8466C56.5036 16.267 56.3814 16.7358 56.3757 17.2528V19.392C56.3757 20.0398 56.495 20.5994 56.7337 21.071C56.978 21.5426 57.3217 21.9062 57.7649 22.1619C58.2081 22.4176 58.7337 22.5455 59.3416 22.5455C59.745 22.5455 60.1143 22.4886 60.4496 22.375C60.7848 22.2614 61.0717 22.0909 61.3104 21.8636C61.549 21.6364 61.7308 21.358 61.8558 21.0284L65.2138 21.25C65.0433 22.0568 64.6939 22.7614 64.1655 23.3636C63.6428 23.9602 62.9666 24.4261 62.1371 24.7614C61.3132 25.0909 60.3615 25.2557 59.282 25.2557ZM67.728 25V7.54545H71.4183V21.9574H78.9013V25H67.728ZM81.277 25V11.9091H84.9077V25H81.277ZM83.1009 10.2216C82.5611 10.2216 82.098 10.0426 81.7116 9.68466C81.331 9.32102 81.1406 8.88636 81.1406 8.38068C81.1406 7.88068 81.331 7.4517 81.7116 7.09375C82.098 6.73011 82.5611 6.54829 83.1009 6.54829C83.6406 6.54829 84.1009 6.73011 84.4815 7.09375C84.8679 7.4517 85.0611 7.88068 85.0611 8.38068C85.0611 8.88636 84.8679 9.32102 84.4815 9.68466C84.1009 10.0426 83.6406 10.2216 83.1009 10.2216ZM94.8558 11.9091V14.6364H86.7763V11.9091H94.8558ZM88.6257 25V10.9631C88.6257 10.0142 88.8104 9.22727 89.1797 8.60227C89.5547 7.97727 90.0661 7.50852 90.7138 7.19602C91.3615 6.88352 92.0973 6.72727 92.9212 6.72727C93.478 6.72727 93.9865 6.76989 94.4467 6.85511C94.9126 6.94034 95.2592 7.01705 95.4865 7.08523L94.8388 9.8125C94.6967 9.76705 94.5206 9.72443 94.3104 9.68466C94.1058 9.64489 93.8956 9.625 93.6797 9.625C93.1456 9.625 92.7734 9.75 92.5632 10C92.353 10.2443 92.2479 10.5881 92.2479 11.0312V25H88.6257ZM102.571 25.2557C101.224 25.2557 100.065 24.983 99.0938 24.4375C98.1278 23.8864 97.3835 23.108 96.8608 22.1023C96.3381 21.0909 96.0767 19.8949 96.0767 18.5142C96.0767 17.1676 96.3381 15.9858 96.8608 14.9688C97.3835 13.9517 98.1193 13.1591 99.0682 12.5909C100.023 12.0227 101.142 11.7386 102.426 11.7386C103.29 11.7386 104.094 11.8778 104.838 12.1562C105.588 12.429 106.241 12.8409 106.798 13.392C107.361 13.9432 107.798 14.6364 108.111 15.4716C108.423 16.3011 108.58 17.2727 108.58 18.3864V19.3835H97.5256V17.1335H105.162C105.162 16.6108 105.048 16.1477 104.821 15.7443C104.594 15.3409 104.278 15.0256 103.875 14.7983C103.477 14.5653 103.014 14.4489 102.486 14.4489C101.935 14.4489 101.446 14.5767 101.02 14.8324C100.599 15.0824 100.27 15.4205 100.031 15.8466C99.7926 16.267 99.6705 16.7358 99.6648 17.2528V19.392C99.6648 20.0398 99.7841 20.5994 100.023 21.071C100.267 21.5426 100.611 21.9062 101.054 22.1619C101.497 22.4176 102.023 22.5455 102.631 22.5455C103.034 22.5455 103.403 22.4886 103.739 22.375C104.074 22.2614 104.361 22.0909 104.599 21.8636C104.838 21.6364 105.02 21.358 105.145 21.0284L108.503 21.25C108.332 22.0568 107.983 22.7614 107.455 23.3636C106.932 23.9602 106.256 24.4261 105.426 24.7614C104.602 25.0909 103.651 25.2557 102.571 25.2557Z" fill="#FFFFFF"/>
</svg>
